<?xml version="1.0" encoding="UTF-8" standalone="no"?>
<svg
   xmlns:dc="http://purl.org/dc/elements/1.1/"
   xmlns:cc="http://creativecommons.org/ns#"
   xmlns:rdf="http://www.w3.org/1999/02/22-rdf-syntax-ns#"
   xmlns:svg="http://www.w3.org/2000/svg"
   xmlns="http://www.w3.org/2000/svg"
   xmlns:sodipodi="http://sodipodi.sourceforge.net/DTD/sodipodi-0.dtd"
   xmlns:inkscape="http://www.inkscape.org/namespaces/inkscape"
   width="570pt"
   height="569pt"
   viewBox="0 0 570 569"
   version="1.1"
   id="svg102"
   sodipodi:docname="Maxvectorized.svg"
   inkscape:version="0.92.2 (5c3e80d, 2017-08-06)">
  <metadata
     id="metadata108">
    <rdf:RDF>
      <cc:Work
         rdf:about="">
        <dc:format>image/svg+xml</dc:format>
        <dc:type
           rdf:resource="http://purl.org/dc/dcmitype/StillImage" />
      </cc:Work>
    </rdf:RDF>
  </metadata>
  <defs
     id="defs106" />
  <sodipodi:namedview
     pagecolor="#ffffff"
     bordercolor="#666666"
     borderopacity="1"
     objecttolerance="10"
     gridtolerance="10"
     guidetolerance="10"
     inkscape:pageopacity="0"
     inkscape:pageshadow="2"
     inkscape:window-width="1366"
     inkscape:window-height="705"
     id="namedview104"
     showgrid="false"
     inkscape:zoom="0.99914561"
     inkscape:cx="897.02383"
     inkscape:cy="354.39171"
     inkscape:window-x="-8"
     inkscape:window-y="-8"
     inkscape:window-maximized="1"
     inkscape:current-layer="#000000ff"
     showguides="false" />
  <g
     id="#000000ff"
     transform="matrix(5.9281775,0,0,5.9281775,-1245.2422,-2203.787)">
    <path
       d="m 267.65354,31.971489 c 5.75,-1.24 11.76,-1.76 17.62,-1.21 3.35,0.4 3.6,5.05 1.32,6.92 -8.74,9.6 -19.12,17.8 -26.25,28.8 -7.52,11.43 -14.02,24.16 -15.12,38.020001 -0.65,5.72 0.64,11.68 3.63,16.61 1.83,2.5 4.4,4.96 7.65,5.2 3.87,0.18 7.18,-2.87 8.37,-6.38 2.95,-8.45 2.78,-17.67 5.81,-26.100001 1.17,-3.11 3.47,-6.23 6.94,-6.86 8.08,-1.7 16.27,0.81 23.86,3.43 1.69,0.38 3.01,2.31 2.26,4 -2.75,5.800001 -8.55,9.080001 -12.73,13.710001 -6.2,6.77 -12.01,14.2 -15.18,22.91 -2.88,6.72 -3.13,14.71 -0.42,21.51 2.91,7.11 10.89,10.29 18.11,10.49 4.93,0.03 10.23,0.57 14.82,-1.65 -1.55,-6.56 -5.09,-12.79 -4.6,-19.74 1.23,-0.78 2.9,-0.54 3.66,0.78 2.15,3.94 2.98,8.45 5.05,12.44 4.09,-4.19 6.17,-12.01 12.98,-12.29 0.75,6.1 -4.92,10.44 -6.94,15.8 14.9,-6.77 29.84,-14.51 41.33,-26.43 4.19,-4.25 7.27,-9.4 11.02,-14 1.11,-1.8 4.16,-1.9 4.91,0.3 4.05,11.03 5.12,22.86 6.41,34.47 0.31,3.82 0.93,7.74 0.01,11.53 -16.28,1.65 -32.64,3.14 -48.79,5.92 2.33,3.18 6.34,4.52 8.96,7.46 8.22,9.04 14,20.26 16.68,32.19 0.6,2.02 0.76,4.29 2.03,6.06 10.72,0.84 21.98,1.83 31.27,7.83 7.22,4.13 10.27,12.61 11.42,20.42 1.59,13.73 -1.25,27.87 -7.57,40.13 -1.4,2.47 -2.92,5.15 -5.52,6.53 -2.97,1.32 -6.3,-1.27 -7.13,-4.11 -2.65,-8.48 -1.34,-17.47 -2.41,-26.16 -2.01,0.1 -3.75,1.17 -5.21,2.48 -5.72,4.92 -12.04,9.3 -16.57,15.44 -3.76,5.05 -7.49,10.36 -9.44,16.4 -1.16,2.86 1.21,5.51 3.95,6.02 7.23,1.87 15.61,2.42 21.04,8.19 2.62,3.54 5.58,7.77 4.69,12.41 -0.59,3.43 -1.8,6.76 -3.45,9.82 -0.99,1.98 -3.32,2.6 -4.92,3.96 -7.32,12.37 -8.69,27.13 -8.89,41.21 0.06,0.42 0.2,1.26 0.26,1.68 4.51,0.99 10.69,1.64 12.33,6.8 1.38,8.75 -4.78,16.11 -8.66,23.37 -2.49,3.69 -1.71,8.32 -1.02,12.43 0.46,3.23 2.87,5.8 5.61,7.37 3.97,0.41 8.01,-0.76 11.96,0.24 7.16,1.67 14.52,4.7 19.3,10.53 1.31,1.57 2.11,4.15 0.42,5.77 -2.66,2.27 -6.3,2.8 -9.61,3.55 -10.43,1.89 -21.32,0.77 -31.28,-2.78 -4.87,-1.74 -7.63,-6.47 -11.82,-9.2 -6.76,-1.82 -13.74,0.82 -19.68,3.98 -8.93,4.27 -15.33,12.07 -23.19,17.84 -4.71,3.39 -9.09,7.6 -14.76,9.3 -3.58,1.52 -8.25,-1.87 -7.57,-5.8 -0.18,-6.05 4.12,-10.73 5.99,-16.17 -4.38,0.26 -8.24,2.47 -12.22,4.08 -6.66,2.75 -13.9,3.46 -20.97,4.46 -4.66,0.55 -9.78,1.16 -14.03,-1.28 -2.57,-1.39 -4.93,-3.95 -4.65,-7.07 0.11,-5.62 4.25,-9.79 7.6,-13.84 -2.02,-1.62 -4.97,-1.63 -7.35,-2.64 -7.94,-3.02 -16.72,-5.89 -22.02,-12.99 -2.53,-3.14 -1.75,-7.32 -2.05,-11.03 -1.39,-1.47 -3.63,-1.88 -4.8,-3.58 0.26,-2.08 1.79,-3.64 3.24,-5.01 4.87,-4.49 10.67,-8.08 17.08,-9.88 4.41,-1.28 9.05,-1.07 13.58,-1.49 0.24,-8.23 -0.51,-16.73 2.28,-24.65 3.21,-9.58 8.72,-19.12 17.72,-24.25 8.82,-4.21 19.49,-4.21 28.56,-0.78 1.21,0.4 2.44,0.77 3.69,1.03 0.56,-1.52 1.02,-3.09 1.21,-4.7 -0.68,-1.76 -2.57,-2.69 -3.56,-4.27 1.53,-5.06 5.77,-8.66 7.95,-13.39 -0.89,-0.95 -1.87,-1.8 -2.73,-2.75 -0.43,-1.49 0.83,-2.47 1.8,-3.33 4.86,-4.31 11.42,-6.3 15.94,-11.02 0.93,-2.52 -0.12,-5.19 -1.48,-7.32 -5.55,-8.77 -15.6,-14.32 -25.92,-14.75 -9.72,-0.51 -19.13,-3.12 -28.58,-5.19 0.7,8.56 2.11,17.18 1.38,25.78 -0.54,3.84 -3.94,8.72 -8.34,7.51 -3.36,-1.38 -5.83,-4.32 -7.47,-7.48 -3.74,-7.13 -5.33,-15.09 -7.17,-22.86 -1.9,-8.72 -3.31,-18.02 -0.39,-26.68 2.04,-7.08 6.94,-12.81 12.02,-17.95 5.45,-5.66 13.15,-8.11 19.55,-12.43 2.31,-1.55 3.24,-4.31 4.39,-6.71 2.67,-6.35 5.89,-12.49 9.8,-18.16 2.16,-3.12 4.77,-5.9 6.71,-9.16 -5.17,1.45 -9.67,4.87 -15.05,5.6 -2.85,0.39 -4.73,-2.23 -6.64,-3.88 -7.48,-7.81 -16.14,-15.25 -26.89,-17.88 -4.53,-1.22 -10.67,-1.63 -12.65,-6.68 -2.67,-7.66 -3.07,-16.33 -0.57,-24.09 0.47,-2.14 3.1,-4.22 5.02,-2.33 2.67,3.19 3.8,7.37 6.51,10.54 2.12,2.5 5.12,4.39 8.45,4.64 0.9,-2.81 -1.38,-5.09 -2.91,-7.15 -9.46,-10.98 -16.56,-24.44 -18.11,-39.01 -1.39,-11.240001 0.52,-22.530001 1.58,-33.720001 0.98,-7.35 1.18,-15.92 7.19,-21.21 8.85,-7.06 19.6,-11.23 30.36,-14.42 m -5.54,7.4 c -7.26,2.42 -14.33,5.73 -20.39,10.46 -3.9,3.01 -4.17,8.36 -4.94,12.84 -1.25,7.89 -2.41,15.83 -2.13,23.86 0.18,6.45 -0.45,12.98 0.58,19.380001 2.27,8.49 5.73,16.77 10.96,23.89 3.26,4.87 7.81,9.06 9.63,14.77 0.83,4.54 -4.14,8.3 -8.41,7.5 -6.11,-0.17 -9.68,-5.66 -13.68,-9.45 0.11,3.93 -0.31,8.02 0.84,11.84 1.4,3.63 5.85,3.74 9.04,4.75 11.23,2.39 20.29,10.01 28.19,17.94 1.48,1.36 2.75,3.07 4.58,3.98 9.61,-4.48 19.64,-8.04 29.81,-11.03 1.34,-0.44 2.88,-0.88 3.42,-2.36 -7.72,-0.08 -15.48,0.71 -23.18,-0.08 -8.46,-1.96 -16.03,-8.45 -18.2,-17.03 -3.62,-11.99 1.99,-24.2 7.79,-34.5 4.57,-8.57 13.08,-13.9 18.52,-21.790001 -4.39,-1.96 -9.28,-2.3 -14.02,-2.4 -2.95,-0.38 -4.33,3.04 -5.06,5.34 -1.41,8.040001 -2.45,16.240001 -5.31,23.930001 -1.74,4.64 -5.45,8.51 -10.21,10.03 -3.68,1.68 -7.51,-0.71 -10.62,-2.55 -6.97,-4.5 -9.86,-13.19 -9.52,-21.18 0.38,-8.150001 0.95,-16.590001 4.42,-24.110001 5.11,-11.54 11.45,-22.66 20.05,-31.98 4.8,-5.49 10.35,-10.26 15.11,-15.79 -5.96,0.09 -11.67,1.92 -17.27,3.74 m 103.97,106.170001 c -0.43,6.03 3.43,12.67 10,12.89 0.34,-5 -0.37,-9.99 -1.08,-14.92 -0.86,-5.71 -1.14,-11.53 -2.7,-17.11 -3.82,5.61 -5.7,12.43 -6.22,19.14 m -14.35,0.34 c -10.46,7.98 -22.64,13.21 -34.58,18.53 -1.47,0.69 -2.66,1.81 -3.77,2.97 3.52,-0.12 6.98,-0.88 10.41,-1.63 14.25,-3.04 28.65,-5.35 43.18,-6.42 -1.54,-2.34 -3.55,-4.5 -4.22,-7.29 -1.32,-4.51 -0.05,-9.19 -0.04,-13.77 -4.2,1.69 -7.29,5.11 -10.98,7.61 m -30.26,28.93 c -6.72,-0.05 -14.21,-0.39 -19.84,3.93 -9.13,7.91 -15.24,18.57 -20.55,29.26 -2.72,5.76 -2.8,12.5 -6.14,17.99 -1.98,2.22 -4.89,3.23 -7.33,4.82 -5.83,3.32 -10.34,8.84 -12.5,15.19 -0.71,4.38 -1.24,9.99 2.73,13.05 7.75,7.67 19.33,7.35 29.31,9.42 8.55,0.84 17.81,1.84 24.56,7.74 5.5,4.85 11,11.52 10.28,19.33 -0.5,4.46 -4.98,6.42 -7.62,9.46 0.23,4.03 -2.89,6.53 -5.65,8.92 0.73,0.15 2.19,0.45 2.91,0.6 -2.1,5.3 -6.02,9.72 -8,15.13 -3.77,7.4 -2.63,15.87 -2.77,23.87 -0.09,6.48 0.74,12.93 1.41,19.36 2.12,14.76 7.87,28.76 9.54,43.59 0.66,4.65 -0.73,9.19 -1.07,13.79 0.78,1.65 1.98,3.06 2.94,4.62 -1.75,0.43 -3.56,0.29 -5.34,0.48 -2.4,2.29 -4.96,4.4 -7.4,6.66 -4.92,5.6 -10.62,11.49 -11.25,19.33 5.05,-0.3 8.79,-4.13 12.74,-6.85 6.82,-5.42 13.59,-11.02 19.38,-17.57 2.38,-2.3 1.58318,-7.58954 1.40007,-10.3696 -0.59544,-3.58808 4.16982,-4.40849 4.58353,-2.07259 0.24,2.01 1.1264,7.77219 1.2464,9.81219 2.45,-1.37 4.72,-3.14 7.45,-3.95 3.85,-0.6 7.86,0.1 11.61,-1.14 -4.37,-10.61 -10.01,-20.69 -14.1,-31.42 -2.47,-5.28 1.05,-12.01 -3.35,-16.48 4.24,-7.3 10.65,-13.09 15.97,-19.6 8.34,-8.62 15.7,-18.3 20.63,-29.28 1.73,-3.98 2.17,-8.35 3.52,-12.44 2.23,-1.14 2.48,2.21 3.56,3.46 -0.13,-4.03 -0.36,-8.44 -3.38,-11.49 -4.11,-4.99 -11.24,-3.93 -16.78,-6.05 -3.91,-0.92 -6.83,-3.71 -9.76,-6.26 -5.2,-2.05 -11.79,1.23 -16.6,-2.12 4.57,-4.43 11.1,-3.47 16.46,-1.27 1.14,-2.67 1.68,-5.56 2.01,-8.43 -4.77,2.4 -10.08,5.86 -15.58,3.59 -2.64,-1.21 -6.52,-2.6 -6.7,-5.97 5.14,1.02 10.83,3.03 15.81,0.33 5.77,-3.22 11.33,-7.12 15.39,-12.41 3.8,-4.88 8.81,-8.58 13.22,-12.87 5.38,-5.18 12.51,-7.96 18.06,-12.92 2.78,-2.53 5.78,-5 7.64,-8.31 1.94,-3.31 -0.38,-7.26 -2.92,-9.5 -4.58,-3.54 -10.05,-5.92 -15.72,-7.05 -5.29,-1.03 -10.82,-2.75 -16.16,-0.99 1.61,0.56 3.64,0.4 4.88,1.75 -1.69,2.61 -5.02,2.58 -7.7,3.36 -2.85,0.43 -4.28,3.29 -6.2,5.11 -0.38,-0.99 -0.78,-1.98 -1.19,-2.95 -1.44,1.25 -2.48,3.43 -4.7,3.15 -4.31,0.37 -5.97,-4.33 -7.38,-7.52 -0.49,1.55 -0.18,3.57 -1.62,4.67 -2.14,-2.43 -2.78,-5.71 -3.24,-8.81 -0.72,-7.05 -0.33,-14.27 2.11,-20.98 1.33,-3.04 -0.44,-6.11 -0.97,-9.11 6.96,3.32 11.54,10.05 18.15,13.98 -2.65,-9.75 -8.5,-18.29 -15.11,-25.78 -1.69,-1.63 -4.51,-3.99 -6.74,-1.9 -2.29,1.99 -5.22,2.67 -8.2,2.44 1.77,0.79 3.24,2.07 4.61,3.43 -4.79,1.85 -10.15,1.63 -14.8,3.93 -4.97,1.98 -8.83,6.11 -14.06,7.46 1.94,-4.72 6.95,-6.81 9.95,-10.69 1.69,-1.98 3.12,-4.41 5.61,-5.51 4.28,-2.13 9.25,-1.66 13.7,-3.21 0.3,-0.43 0.89,-1.31 1.18,-1.74 -1.96,0.89 -3.88,2.18 -6.13,2 m 17.15,25.79 c -1.3,4.31 -2.01,8.84 -1.75,13.35 4.76,1.44 9.43,3.21 14.23,4.5 -0.8,-3.8 -1.7,-7.67 -3.59,-11.1 -2.25,-3.02 -5.62,-5 -8.89,-6.75 m 2.45,19.52 c -0.62,2.84 0.16,5.77 1.74,8.16 1,0.12 1.98,-0.01 2.92,-0.38 1.42,-3.44 -0.42,-8.11 -4.66,-7.78 m -72.58,120.54 c -8.39,3.78 -13.4,12.28 -16.16,20.7 -2.12,5.82 -1.4,12.1 -1.55,18.17 -0.5,12.7 5.27,24.52 11.6,35.17 0.71,1.89 2.94,4.28 1.14,6.14 -7.23,-5.13 -12.5,-12.79 -15.48,-21.09 -1.17,-3.12 -1.89,-6.41 -3.45,-9.37 -8.68,-2.12 -17.14,2.33 -24.58,6.31 1.97,-0.35 3.94,-0.72 5.96,-0.76 -2.04,4.85 -6.74,9.3 -4.95,15.05 3.95,6.15 11.3,8.59 17.85,10.91 4.85,1.5 9.6,3.58 14.67,4.24 4.15,-0.25 8.22,-3.49 12.4,-1.43 -0.15,2 -0.2,4.01 0.04,6.02 -3.51,0.5 -7.29,0.04 -10.47,1.94 -5.87,2.77 -12.33,7.98 -10.71,15.32 12.55,0.17 26.42,0.64 37.2,-6.88 l -0.12,-1.16 c -3.96,-4.18 -10.07,-6.78 -12,-12.55 8.72,3.25 16.13,9.78 25.37,11.68 5.93,-1.79 7.63,-8.27 10.41,-13.05 1.16,-6.12 0.11,-12.5 -1.57,-18.44 -3.79,-13.85 -7.08,-27.86 -8.85,-42.12 -1.86,-7.71 -0.85,-15.64 -1.38,-23.46 -7.52,-4.5 -17.51,-5.7 -25.37,-1.34 m 72.97,34.87 c -1.14,1.55 -2.35,3.21 -2.5,5.2 -0.5,6.49 -0.35,13.2 1.99,19.36 3.73,10.14 8.98,19.61 13.61,29.35 2.23,4.12 4.28,9.06 8.92,10.98 7.24,2.98 15.24,2.77 22.93,2.79 3.98,-0.09 8.29,0.28 11.83,-1.92 -0.3,-1.69 -2.03,-2.38 -3.28,-3.28 -5.11,-2.93 -10.77,-5.14 -16.65,-5.81 -5.04,-0.12 -10.13,-0.26 -15.02,-1.63 -3.49,-6.71 -4.17,-14.39 -5.47,-21.72 -0.83,-4.4 -0.96,-8.88 -0.93,-13.33 0.1,-12.61 -0.56,-25.27 1.33,-37.78 -5.72,5.8 -11.78,11.31 -16.76,17.79 m 21.36,7.24 c -0.21,6.26 0.03,12.53 0.18,18.79 2.71,-2.62 4.28,-6.12 5.89,-9.47 1.1,-2.18 1.56,-4.69 1.04,-7.08 -1.69,-2.16 -4.61,-2.27 -7.11,-2.24 z"
       id="path85"
       inkscape:connector-curvature="0"
       style="opacity:1;fill:#000000;stroke:#000000;stroke-width:0.09375"
       sodipodi:nodetypes="cccccccccccccccccccccccccccccccccccccccccccccccccccccccccccccccccccccccccccccccccccccccccccccccccccccccccccccccccccccccccccccccccccccccccccccccccccccccccccccccccccccccccccccccccccccccccccccccccccccccccccccccccccccccccccccccccccccccccccccccccccccccccccccccccccccccccccccccccccccc" />
    <path
       d="m 328.60354,179.70149 c 2.42,-1.09 5.19,-0.86 7.69,-0.2 0.14328,3.32463 -5.49475,3.6522 -7.75,2.92 0.02,-0.68 0.04,-2.04 0.06,-2.72 z"
       id="path87"
       inkscape:connector-curvature="0"
       style="opacity:1;fill:#000000;stroke:#000000;stroke-width:0.09375"
       sodipodi:nodetypes="cccc" />
    <path
       d="m 319.19354,198.17149 c 3.17,-1.94 5.53,-5.33 9.31,-6.15 -0.52,3.68 -3.85,5.76 -5.77,8.65 0.45,2.48 1.75,4.69 2.67,7.01 2.68,5.84 2.86,12.49 2.19,18.77 -0.03,1.36 -0.72,2.02 -2.07,1.98 -0.69,-1.9 -1.02,-3.89 -1.4,-5.85 -0.81,4.31 -1.91,9.37 -6.31,11.41 -2.46,1.85 -5.36,0.17 -7.6,-1.17 -2.29,-1.22 -3.27,-3.72 -4.6,-5.78 -1.2,-0.01 -2.09,0.9 -2.94,1.61 1.57,3.74 5.35,5.84 7.32,9.31 -5.3,1.63 -7.98,-3.78 -11.79,-6.08 -4.14,0.45 -8.27,1.98 -12.46,0.93 0.23,-1.57 1.38,-3.1 0.85,-4.71 -0.33,-1.83 -1.87,-3.99 -0.25,-5.62 2.27,1.32 4.36,2.97 6.83,3.95 1.8,-4.31 0.73,-9.38 0.47,-13.95 -1.93,-0.8 -3.96,-1.29 -5.92,-1.99 1.61,-1.93 4.28,-1.99 6.56,-2.42 8.98,-1.14 17.33,-5.09 24.91,-9.9 m -6.09,9.04 c -4.07,2.41 -8.78,3.25 -13.15,4.91 -0.45,3.69 -0.29,7.44 -0.11,11.15 4.85,-1.36 9.23,-3.99 14.07,-5.4 2.99,-0.94 6.16,-0.67 9.25,-0.88 -0.61,-4.23 -1.93,-8.44 -4.29,-12.03 -2.18,-0.29 -3.9,1.44 -5.77,2.25 m -3.3,17.29 c -0.13,3.16 3.46,7.21 6.69,5.15 2.78,-1.73 3.15,-5.37 3.16,-8.33 -3.44,0.39 -6.93,1.24 -9.85,3.18 z"
       id="path89"
       inkscape:connector-curvature="0"
       style="opacity:1;fill:#000000;stroke:#000000;stroke-width:0.09375" />
    <path
       d="m 362.47354,233.55149 c 3.3,-2.69 7.82,-3.2 11.93,-3.44 5.64,-0.01 12.44,1.14 15.46,6.54 l -0.37,0.94 c -1.79,0.07 -3.52,-0.41 -5.29,-0.53 -0.79,1.94 -1.15,4.1 -2.39,5.83 -4.15,4.82 -10.26,7.12 -15.36,10.67 -2.23,3.32 -2.35,7.79 -5.08,10.89 -5.73,6.73 -13.8,12.57 -22.98,12.5 -4.3,0.11 -7.52,-3.25 -10.41,-5.98 -3.34,-3.13 -5.32,-7.32 -8.04,-10.92 -12.02,-0.35 -25.04,0.47 -35.67,-6.27 -3.57,-1.67 -5.4,-5.23 -7.8,-8.12 -3.39,2.29 -5.51,5.86 -8.22,8.82 -1.29,0.03 -1.94,-0.6 -1.95,-1.89 0.78,-5.27 4.72,-9.52 9.36,-11.84 6.7,-3.41 14.35,-5.88 21.92,-4.36 -0.38,1.13 -1.11,1.88 -2.2,2.25 -4.13,1.65 -8.69,2.13 -12.56,4.39 -0.65,3.92 3.48,6.09 6.42,7.57 8.96,3.48 18.75,3.61 28.23,3.56 2.76,-0.15 5.21,1.45 6.58,3.78 3.34,5.03 6.66,11.01 12.81,12.94 7.83,1.76 14.96,-3.57 19.64,-9.3 3.04,-3.24 2.72,-8.19 5.38,-11.61 3.51,-3.12 8.44,-3.96 12.08,-6.93 2.43,-2.04 4.95,-4.29 6.14,-7.3 l -0.39,-0.52 c -5.08,-0.76 -10.25,0.14 -15.33,-0.52 -0.48,-0.29 -1.43,-0.87 -1.91,-1.15 z"
       id="path91"
       inkscape:connector-curvature="0"
       style="opacity:1;fill:#000000;stroke:#000000;stroke-width:0.09375" />
    <path
       d="m 332.07354,237.29149 c 3.49,-1.71 7.55,-1.4 11.31,-1.04 3.36,0.61 7.07,0.96 9.75,3.32 l -0.57,0.96 c -6.95,0.6 -13.99,0.14 -20.89,1.52 0.27,-1.58 0.51,-3.15 0.4,-4.76 z"
       id="path93"
       inkscape:connector-curvature="0"
       style="opacity:1;fill:#000000;stroke:#000000;stroke-width:0.09375" />
    <path
       d="m 328.28354,247.75149 c 1.22,-3.72 5.64,-4.98 9.09,-5.63 4.81,-0.13 9.93,-0.86 14.53,0.83 0.18,0.45 0.56,1.36 0.74,1.81 -3.57,0.41 -7.16,0.27 -10.74,0.54 -4.61,0.37 -9.05,1.81 -13.62,2.45 z"
       id="path95"
       inkscape:connector-curvature="0"
       style="opacity:1;fill:#000000;stroke:#000000;stroke-width:0.09375" />
    <path
       d="m 350.20354,248.21149 c 3.37,-0.95 5.98,3.22 5.43,6.17 -1.85,7.71 -11.07,10.95 -18.18,9.54 -2.11,-1.14 -3.57,-3.21 -4.25,-5.47 0.71,-4.48 4.54,-9.07 9.27,-9.31 -1.67,3.16 -4.48,6.13 -3.81,10 3.71,0.31 8.09,0.48 10.73,-2.66 2.55,-2.11 0.93,-5.55 0.81,-8.27 z"
       id="path97"
       inkscape:connector-curvature="0"
       style="opacity:1;fill:#000000;stroke:#000000;stroke-width:0.09375" />
    <path
       d="m 320.54354,353.33149 c -0.57,-2.93 -1.04,-6.21 0.91,-8.76 2.66,3.48 3.09,7.95 4.08,12.08 1.58,7.54 3.46,15.12 3.42,22.87 0.11,6.02 -1.13,11.96 -1.06,17.99 0.09,10.09 -1.06642,16.90781 -0.0964,26.97781 0.41058,3.44721 -3.83583,5.50014 -4.58353,2.07259 -2.32,-8.54 -1.04005,-16.3404 -1.13005,-25.0604 1.81,-16.03 1.1,-32.28 -1.54,-48.17 z"
       id="path99"
       inkscape:connector-curvature="0"
       style="opacity:1;fill:#000000;stroke:#000000;stroke-width:0.09375"
       sodipodi:nodetypes="cccccccccc" />
  </g>
</svg>
